<svg xmlns="http://www.w3.org/2000/svg" viewBox="0 0 256 256"><defs><style>.cls-1{fill:#f2cc8f;}.cls-2{fill:#4db6ac;}.cls-3{fill:#e07a5f;}.cls-4{fill:#d4d6dd;}.cls-5{fill:#3d405b;}.cls-6{fill:#fff;}</style></defs><g id="_2" data-name="2"><path class="cls-1" d="M132.31,122.74l-3.06,4s-11.27-18.64-4.7-26.85c4-6.21,14.08-1,14.08-1s5.38-10.15,15.14-7.8S166,101.5,171.06,101.6c0,0-3,10.49-13.77,12.17l.57-6.2a42.92,42.92,0,0,1-17-3.4s-.55,10.91-4.52,11.23-2.94-.53-3.78.51S131.42,120.06,132.31,122.74Z"/><path class="cls-2" d="M106,155.51s6.32,0,9.48,8.73l8.66-7.23,17.48-.38s.76-12,10.82-16c3.64-1.22,8.52.42,8.52.42a7.22,7.22,0,0,0-8-4.36,56.24,56.24,0,0,1-8.11.73s.73,4-7.3,4.59-11.92-2.09-11.85-4.6C125.69,137.41,111.43,148.12,106,155.51Z"/><path class="cls-3" d="M141.91,156.25s1.34-12.94,11-15.78c7.35-2.15,11,2.61,11,2.61l2.73,3.27s-5.2-.75-7.52,1.15-6.25,8.75-6.25,8.75Z"/><polygon class="cls-2" points="171.06 179.17 178.34 191.49 199.31 179.44 185.63 176.92 182.52 172.32 171.06 179.17"/><polygon class="cls-2" points="190.87 163.11 207.22 165.25 210.04 140.55 198.37 149.31 192.16 148.87 190.87 163.11"/><polygon class="cls-4" points="119.59 161.57 124.13 157.01 153.23 156.25 170.56 178.5 176.29 188.01 175.91 210.24 122.12 211.3 119.59 161.57"/><path class="cls-3" d="M31.3,129.58c3.51-1,11.09-2.92,14.87-25.34s3.24-40.74-3.51-38.43c-12.1,3-6.88,11.19-9.35,17.52-1.68,6.48-3,9.2-11,8.92,0,0-3.37-5.19-1-22.53C23,58.3,8,62,8,67.11c0,0-3.29,16.75-3.13,23.5S4,108.07,13.7,109.54c11,1.67,11-1.28,14,.77s-2.15,12.38-1.9,15.1S26.8,130.86,31.3,129.58Z"/><path class="cls-3" d="M81.58,63.89c-16.17-7.57-24.83,8.67-24.83,8.67C53.63,79.73,47,110.49,61.67,116s21.26-6.56,22.36-8.22S97.75,71.45,81.58,63.89Zm-14.21,36.8s-4.25,1.53-3.32-11.51,6.47-13.4,6.47-13.4a5,5,0,0,1,3.07,5.73C74.2,97,71.57,101,67.37,100.69Z"/><path class="cls-3" d="M104.49,120.32c9,2.89,22.37-25,24.76-30.35s7.45-17.27,6-21.93-9.41-5.36-10.71-4.16-5.13,24.83-11.13,22.37,3.19-18.54,2.79-22.73-10.37-9-15.29-2.58-6.2,27.34-5.67,29.79,10.09,4.84,11.84,8.2S99,118.55,104.49,120.32Z"/><path class="cls-4" d="M182.15,111.22s7.71-9,13-12.15v9.73s8.33-2.94,10.54-6.23a34.77,34.77,0,0,1-15.88,17.19c.89-5.65,1.91-10.79,1-12.77C190.5,106.73,182.15,111.22,182.15,111.22Z"/><path class="cls-4" d="M197.45,89.19s8.42-16.47,30.31-25.56a57.14,57.14,0,0,0-9.44,29.58l33.17-12.78S221.29,99,213.25,115c0,0-4.22-20.75,0-33.41Z"/><circle class="cls-4" cx="165.06" cy="128.84" r="2.03"/><circle class="cls-4" cx="178.24" cy="123.49" r="3.43"/><path class="cls-4" d="M156.76,113.74s-3,16.33-7.38,17.78-12.54.8-15.91.4,2.41,3,4,4.31.11,5.78.11,5.78,5.69-1,6.36-2.1a5.35,5.35,0,0,0,.7-2.29l-1.77.26s-1.43-3-.72-3.72,6-.7,7.79-1.49C154.32,129.77,156.71,118.06,156.76,113.74Z"/><path class="cls-4" d="M113.86,160.91s-6.89,8-12.3,9.59-14.61-4-14.61-4,10.23,9.13,15.36,7.8,13.27-9.77,13.27-9.77Z"/><path class="cls-4" d="M169.3,144.3s7.22,12.54,9.31,14S190.87,161,190.87,161v2.14l-14.79-2.34L167.24,147l-3.09-3.68Z"/><path class="cls-4" d="M164.64,146.72s-9.11,5.52-8.68,9.25,8,12.68,8,12.68l-10.76-12.4s2.91-9.32,7.16-9.42Z"/><path class="cls-4" d="M75.5,150.88c3.78-1.41,7-5,6.64-6s-3-3.52-3-3.52,2.11,2,1.6,3-5.74,5.8-5.74,5.8Z"/><path class="cls-5" d="M124.55,138.05q-3.3,2.92-6.48,5.93c-2.12,2-4.23,4-6.27,6.13s-4.08,4.18-6.07,6.32-3.91,4.35-5.88,6.53q1.22-1.85,2.52-3.62c.89-1.17,1.79-2.33,2.73-3.46,1.86-2.28,3.87-4.44,5.93-6.54s4.23-4.09,6.48-6c1.13-.94,2.28-1.86,3.43-2.77S123.3,138.84,124.55,138.05Z"/><path class="cls-5" d="M125.69,155.47a74.57,74.57,0,0,1-5.17,5.5c-1.8,1.75-3.65,3.46-5.57,5.09s-3.87,3.23-5.89,4.73-4.07,3-6.16,4.39l0,0a1,1,0,0,1-.7.15,28.37,28.37,0,0,1-8.81-3.18,37.55,37.55,0,0,1-7.49-5.42A40.77,40.77,0,0,1,80,159.69l-.63-.95-.56-1-1.11-2c-.68-1.36-1.25-2.77-1.85-4.15.83,1.27,1.58,2.57,2.41,3.82l1.3,1.82.65.91.71.87,1.41,1.72c.49.56,1,1.08,1.52,1.62a44,44,0,0,0,3.21,3,40.36,40.36,0,0,0,7.28,4.9,29.86,29.86,0,0,0,8.1,2.92l-.72.17c2.07-1.38,4.13-2.77,6.17-4.2s4-2.91,6-4.4C117.94,161.82,121.86,158.72,125.69,155.47Z"/><path class="cls-5" d="M100.92,161.57q-2.33-1.4-4.55-2.93c-1.48-1-3-2-4.41-3.15-2.89-2.15-5.7-4.42-8.42-6.78h0a.51.51,0,0,1-.17-.37c0-2.33.15-4.66.23-7l.19.26c-1.28-.47-2.58-.9-3.85-1.4,1.34.26,2.66.59,4,.89a.25.25,0,0,1,.19.23v0c.08,2.34.2,4.67.22,7l-.17-.38,8.39,6.78,4.18,3.4C98.15,159.26,99.53,160.41,100.92,161.57Z"/><path class="cls-5" d="M157.89,107.42a80.18,80.18,0,0,1-1.07,9.77,55.25,55.25,0,0,1-2.39,9.58,19.74,19.74,0,0,1-2.27,4.49,5.91,5.91,0,0,1-2,1.78,8.9,8.9,0,0,1-2.51.59c-1.62.25-3.29.41-4.9.5a1.83,1.83,0,0,0-.52.08c-.09,0-.14.14-.16.32a5.35,5.35,0,0,0,.15,1.16c.18.79.4,1.58.64,2.36a18.24,18.24,0,0,1-.92-2.29,5.23,5.23,0,0,1-.28-1.24.79.79,0,0,1,.35-.73,2.22,2.22,0,0,1,.67-.19c1.64-.2,3.23-.44,4.82-.79a10.64,10.64,0,0,0,2.21-.61,5,5,0,0,0,1.58-1.55,18.51,18.51,0,0,0,2.08-4.26A75.71,75.71,0,0,0,156,117c.36-1.59.68-3.19,1-4.79S157.59,109,157.89,107.42Z"/><path class="cls-5" d="M162.92,106.24a10.36,10.36,0,0,1-2.69,1,18.39,18.39,0,0,1-2.85.46,27.83,27.83,0,0,1-5.77-.15,43.81,43.81,0,0,1-5.68-1.1l-2.78-.81-2.73-1,.82-.55a29.64,29.64,0,0,1-.21,3.54,22.48,22.48,0,0,1-.7,3.51,10.05,10.05,0,0,1-1.61,3.35,4.86,4.86,0,0,1-3.49,2,.78.78,0,0,1-.3,0h0a2.17,2.17,0,0,0-1.6,0,1.57,1.57,0,0,0-.56,1.34,11.24,11.24,0,0,0,.09,2.18,7,7,0,0,0,.22,1,4.73,4.73,0,0,0,.33.82l0,0a1,1,0,0,1-.05,1.07L130,127.29h0a1,1,0,0,1-1.56,0,47.58,47.58,0,0,1-5.24-10.33,28.08,28.08,0,0,1-1.82-11.57,16.27,16.27,0,0,1,1.69-5.85A8.14,8.14,0,0,1,125.15,97a7.49,7.49,0,0,1,2.94-1.41,12.31,12.31,0,0,1,6.14.32,23.16,23.16,0,0,1,5.46,2.37l-1.53.58a13.66,13.66,0,0,1,2.71-4.52,12.78,12.78,0,0,1,4.21-3.11,13.45,13.45,0,0,1,5-1.21,18.24,18.24,0,0,1,2.56,0c.84.11,1.68.2,2.51.39a14.52,14.52,0,0,1,4.75,1.92,19,19,0,0,1,3.79,3.33,29,29,0,0,0,3.38,3.36,12.51,12.51,0,0,0,4.09,2.14l.05,0a.51.51,0,0,1,.33.63v0a21,21,0,0,1-2.35,4.42,19.57,19.57,0,0,1-3.3,3.68,15.26,15.26,0,0,1-4.17,2.62,16.67,16.67,0,0,1-4.74,1.19,16.64,16.64,0,0,0,4.6-1.49,15.35,15.35,0,0,0,3.92-2.74,19.11,19.11,0,0,0,3-3.71,20.07,20.07,0,0,0,2-4.28l.37.67a13.38,13.38,0,0,1-4.57-2.18,30.94,30.94,0,0,1-3.65-3.36,18,18,0,0,0-3.59-3,12.58,12.58,0,0,0-4.27-1.59,22.26,22.26,0,0,0-2.3-.3,16.18,16.18,0,0,0-2.31,0A11.55,11.55,0,0,0,145.88,93a10.7,10.7,0,0,0-3.53,2.7,11.74,11.74,0,0,0-2.22,3.8,1,1,0,0,1-1.33.66l-.19-.08a22,22,0,0,0-4.94-2.1,10.25,10.25,0,0,0-5.07-.28,5.5,5.5,0,0,0-3.64,2.89,14.77,14.77,0,0,0-1.43,5,25.91,25.91,0,0,0,1.65,10.67,47.9,47.9,0,0,0,4.87,9.93l-1.57-.05,3.4-4.32,0,1.08a5,5,0,0,1-.57-1.36,10,10,0,0,1-.25-1.28,13.51,13.51,0,0,1,0-2.54l.1-.71a3.94,3.94,0,0,1,.25-.73,2.57,2.57,0,0,1,1.14-1.26,3.11,3.11,0,0,1,1.56-.35,4.48,4.48,0,0,1,1.43.28l-.33-.06a3.17,3.17,0,0,0,2.37-1.3,9.23,9.23,0,0,0,1.45-2.83,24.92,24.92,0,0,0,1.09-6.62v0a.61.61,0,0,1,.62-.57.65.65,0,0,1,.2,0l2.64,1,2.68.94a43.41,43.41,0,0,0,5.51,1.35,27.48,27.48,0,0,0,5.66.43,19.38,19.38,0,0,0,2.83-.28A10.07,10.07,0,0,0,162.92,106.24Z"/><path class="cls-5" d="M129.25,126.7a22.58,22.58,0,0,1,.21,5.25,22.08,22.08,0,0,1-.86,5.19,25.3,25.3,0,0,1,.65-10.44Z"/><path class="cls-5" d="M144.82,137.14a3.68,3.68,0,0,1-.48,3.05,5.48,5.48,0,0,1-2.55,2,13.91,13.91,0,0,1-6.12.82,19.65,19.65,0,0,1-6-1.13,9.23,9.23,0,0,1-2.73-1.53,4.27,4.27,0,0,1-1-1.24,2.13,2.13,0,0,1-.24-1.53,3,3,0,0,0,1.85,1.89,12.3,12.3,0,0,0,2.63.79,39.81,39.81,0,0,0,5.59.59,19.7,19.7,0,0,0,5.47-.25,5.13,5.13,0,0,0,2.29-1.12A3.92,3.92,0,0,0,144.82,137.14Z"/><path class="cls-5" d="M141.91,156.25a22.25,22.25,0,0,1,1.75-7.95,16.77,16.77,0,0,1,4.93-6.79,11.49,11.49,0,0,1,3.9-2,11.13,11.13,0,0,1,4.33-.29,14.57,14.57,0,0,1,4,1.19,7.15,7.15,0,0,1,3.15,2.64,8.67,8.67,0,0,0-3.52-1.64,18,18,0,0,0-3.79-.51,10.71,10.71,0,0,0-6.76,2.29,19.23,19.23,0,0,0-4.75,5.81A52.54,52.54,0,0,0,141.91,156.25Z"/><path class="cls-5" d="M150.29,155.51a20,20,0,0,1,1.83-4.83,19.72,19.72,0,0,1,3-4.28,11.76,11.76,0,0,1,4.35-3,8.34,8.34,0,0,1,2.6-.51,8.55,8.55,0,0,1,2.58.41,9.5,9.5,0,0,0-4.86.88,13.44,13.44,0,0,0-3.88,3,28.16,28.16,0,0,0-3.05,4C151.94,152.52,151.07,154,150.29,155.51Z"/><path class="cls-5" d="M152.85,156.22c.21-.74.43-1.49.66-2.24s.59-1.45.92-2.17a15.63,15.63,0,0,1,2.81-3.91,8.69,8.69,0,0,1,4.27-2.59,6.56,6.56,0,0,1,4.87.77.12.12,0,0,1,0,.16.14.14,0,0,1-.08,0h0a19.82,19.82,0,0,0-4.22,1.11,16.24,16.24,0,0,0-3.73,1.81,14.43,14.43,0,0,0-3,3.16c-.42.61-.82,1.25-1.23,1.89s-.7,1.35-1.07,2h0a.11.11,0,0,1-.15,0A.09.09,0,0,1,152.85,156.22Z"/><path class="cls-5" d="M153.23,155.51c1.6,1.88,3.19,3.78,4.72,5.72s3.09,3.85,4.59,5.81,3,3.92,4.49,5.89,3,4,4.41,6l-.62-.12c1.89-1.11,3.8-2.19,5.71-3.28s3.83-2.14,5.78-3.17c-1.81,1.26-3.63,2.48-5.47,3.68s-3.68,2.4-5.53,3.57a.46.46,0,0,1-.61-.1h0c-1.52-2-3-3.91-4.51-5.88s-3-4-4.42-5.94-2.89-4-4.32-6S154.6,157.56,153.23,155.51Z"/><path class="cls-5" d="M167.1,146.72c1.45,1.86,2.81,3.79,4.15,5.72s2.63,3.91,3.91,5.88,2.51,4,3.69,6l1.78,3c.56,1,1.15,2.06,1.68,3.12-.74-.93-1.42-1.89-2.13-2.83l-2-2.89c-1.35-1.93-2.63-3.9-3.9-5.88s-2.52-4-3.7-6S168.18,148.83,167.1,146.72Z"/><path class="cls-5" d="M173.6,183.47c.89,1.28,1.72,2.59,2.58,3.89s1.67,2.62,2.5,3.93l-.53-.14c3.51-2.15,7.1-4.18,10.65-6.27s7.15-4.08,10.73-6.12l.16.89q-3.52-.57-7.05-1.23c-2.35-.43-4.7-.82-7-1.3h0a.2.2,0,0,1-.12-.08c-1.06-1.57-2.12-3.13-3.15-4.72,1.18,1.48,2.32,3,3.48,4.48l-.13-.08c2.37.28,4.73.64,7.1.95s4.73.66,7.09,1a.48.48,0,0,1,.4.55.53.53,0,0,1-.24.34c-3.56,2.06-7.1,4.18-10.7,6.19s-7.15,4.09-10.77,6.05h0a.38.38,0,0,1-.51-.15c-.75-1.37-1.51-2.72-2.25-4.09S174.3,184.86,173.6,183.47Z"/><path class="cls-5" d="M176.08,160.77c2.49.27,5,.6,7.44.9l7.42,1-.49.38c.15-2.38.39-4.75.57-7.13l.6-7.12.43.58-7.18-1.49c-2.39-.5-4.8-1-7.18-1.51l-7.16-1.59c-2.38-.56-4.77-1.09-7.14-1.69,2.42.35,4.83.78,7.24,1.17l7.22,1.29c2.41.42,4.81.91,7.21,1.36l7.2,1.4a.53.53,0,0,1,.44.57L192,156c-.24,2.37-.44,4.75-.72,7.12v0a.42.42,0,0,1-.46.36h0l-7.37-1.32C181,161.72,178.53,161.28,176.08,160.77Z"/><path class="cls-5" d="M198.08,164.05c1.54.08,3.07.22,4.61.33l4.59.45-.48.37c.18-2.1.43-4.2.64-6.3l.67-6.3c.43-4.21,1-8.4,1.45-12.59l.77.42c-1.94,1.54-3.92,3-5.89,4.55s-3.94,3-5.94,4.5h0a.17.17,0,0,1-.14,0c-2.06-.21-4.13-.41-6.19-.65,2.08,0,4.15.15,6.22.23l-.14,0c1.88-1.61,3.82-3.16,5.73-4.75s3.83-3.16,5.77-4.71a.49.49,0,0,1,.67.08.5.5,0,0,1,.1.35c-.46,4.2-.85,8.41-1.36,12.6l-.74,6.3c-.26,2.09-.48,4.19-.76,6.29v0a.41.41,0,0,1-.46.36h0l-4.55-.76C201.1,164.63,199.59,164.38,198.08,164.05Z"/><path class="cls-5" d="M142.83,137.88a24.67,24.67,0,0,1,4.84-1.35,24.3,24.3,0,0,1,5.05-.39,12.86,12.86,0,0,1,5,1.08,6.52,6.52,0,0,1,2.1,1.54,5,5,0,0,1,1.12,2.29A6,6,0,0,0,157.4,138a15.56,15.56,0,0,0-4.72-.78,42.35,42.35,0,0,0-4.9.15C146.14,137.51,144.49,137.67,142.83,137.88Z"/><path class="cls-5" d="M106,155.51a7.21,7.21,0,0,1,3.47.7,10.08,10.08,0,0,1,3,2,11.48,11.48,0,0,1,2.07,2.92,13.81,13.81,0,0,1,.68,1.64,17.13,17.13,0,0,1,.4,1.72c-.33-.5-.59-1-.89-1.5s-.58-1-.92-1.44a19.46,19.46,0,0,0-2.11-2.58A14.36,14.36,0,0,0,106,155.51Z"/><path class="cls-5" d="M124.55,157c2.38-.29,4.77-.46,7.16-.6s4.78-.24,7.16-.32,4.79-.1,7.18-.06l3.59.05c1.2.06,2.39.08,3.59.17-1.19.16-2.39.24-3.58.36l-3.58.25c-2.39.16-4.78.24-7.17.31s-4.78.1-7.17.06S126.94,157.17,124.55,157Z"/><path class="cls-5" d="M118.7,163.88c3.37-.39,6.75-.48,10.12-.62s6.75-.19,10.12-.23,6.75,0,10.13.05l5.06.11c1.69.08,3.38.12,5.07.23-1.69.14-3.38.2-5.06.3l-5.06.19c-3.38.12-6.75.16-10.13.2s-6.75,0-10.12,0l-5.06-.08C122.08,164,120.39,163.89,118.7,163.88Z"/><path class="cls-5" d="M149.9,118.34a10.17,10.17,0,0,1,.23,2.45,10.38,10.38,0,0,1-.32,2.46,5.26,5.26,0,0,1-.49,1.23,2.21,2.21,0,0,1-.53.59,1.19,1.19,0,0,1-.46.2,1.35,1.35,0,0,1-.42,0,4.35,4.35,0,0,1-2.3-1,10.46,10.46,0,0,0,2.34.14c.37.08.63-.74.82-1.44C149.16,121.5,149.4,119.92,149.9,118.34Z"/><path class="cls-5" d="M140.35,115.91a8.1,8.1,0,0,0,3.15,1.91,6.75,6.75,0,0,0,1.76.28c.61,0,1.25,0,2,0a4.44,4.44,0,0,1-4,.81,4.15,4.15,0,0,1-1.84-1.12A3.6,3.6,0,0,1,140.35,115.91Z"/><path class="cls-5" d="M156.07,119.16a1.47,1.47,0,0,1-.77.78,2.31,2.31,0,0,1-1.06.23,2.17,2.17,0,0,1-1.81-1,4.61,4.61,0,0,1,1-.08c.3,0,.57,0,.84,0Z"/><path class="cls-5" d="M141.61,126a8.44,8.44,0,0,0,2,1.07c.34.13.69.22,1.07.33a9.62,9.62,0,0,1,1.22.37,2.94,2.94,0,0,1-2.66.32,2.85,2.85,0,0,1-1.17-.8A2,2,0,0,1,141.61,126Z"/><path class="cls-5" d="M120.09,163.88c.51,8.16.94,16.31,1.35,24.45.24,4.07.42,8.15.73,12.2.16,2,.3,4.05.55,6,0,.5.13,1,.21,1.46a7.6,7.6,0,0,0,.3,1.28s0,.11,0,.07-.1-.09-.08-.08a3.66,3.66,0,0,0,.51.15,11.07,11.07,0,0,0,1.38.22,115.44,115.44,0,0,0,12.09.24c4.07,0,8.14-.21,12.22-.32q12.23-.42,24.48-.75-12.16,1.57-24.4,2.44c-4.07.31-8.16.51-12.25.68a109.09,109.09,0,0,1-12.38-.14,14.72,14.72,0,0,1-1.64-.27,5.58,5.58,0,0,1-1-.32,2.15,2.15,0,0,1-.68-.54,3.23,3.23,0,0,1-.32-.6,16.12,16.12,0,0,1-.61-3.27c-.23-2.07-.38-4.11-.49-6.16-.19-4.1-.33-8.18-.37-12.27Q119.58,176.14,120.09,163.88Z"/><path class="cls-5" d="M175.91,207.44a82.22,82.22,0,0,1-.54-10,80.43,80.43,0,0,1,.54-10,80.43,80.43,0,0,1,.54,10A82.22,82.22,0,0,1,175.91,207.44Z"/><path class="cls-5" d="M77.71,213.16q15.62-1.09,31.25-1.77c10.42-.49,20.84-.84,31.26-1.17s20.85-.56,31.28-.69,20.86-.2,31.3-.09q-15.63,1.09-31.25,1.78c-10.42.48-20.84.83-31.26,1.16s-20.85.55-31.28.69S88.15,213.26,77.71,213.16Z"/><path class="cls-5" d="M75.5,138.05q-1.78,1.8-3.66,3.47c-1.23,1.14-2.52,2.22-3.67,3.37-.14.14-.28.29-.38.41l-.05.07s0,.06,0,0,0,0,0,0a3.67,3.67,0,0,0,.52.92,21.24,21.24,0,0,0,1.56,1.9c.55.62,1.12,1.23,1.71,1.82.28.3.58.59.89.87a4.63,4.63,0,0,0,.48.4,1,1,0,0,0,.53.29,2.33,2.33,0,0,1-1.18-.46c-.37-.22-.72-.46-1.07-.7a25.28,25.28,0,0,1-2-1.62A18.62,18.62,0,0,1,67.44,147a4.24,4.24,0,0,1-.72-1.25,1,1,0,0,1,0-.59.77.77,0,0,1,.12-.27l.12-.18a6.5,6.5,0,0,1,.47-.53,39.85,39.85,0,0,1,3.9-3.26A49.64,49.64,0,0,1,75.5,138.05Z"/><path class="cls-5" d="M74.57,150.5c.91-1.07,1.85-2.1,2.83-3.09s2-2,2.83-2.93a.69.69,0,0,0,0-.51,4.84,4.84,0,0,0-.38-.85,18.56,18.56,0,0,0-1.07-1.71l-2.45-3.36a20.4,20.4,0,0,1,3.11,2.84,12.31,12.31,0,0,1,1.3,1.72,5,5,0,0,1,.5,1,1.62,1.62,0,0,1-.11,1.48A25.56,25.56,0,0,1,78,148,33.4,33.4,0,0,1,74.57,150.5Z"/><path class="cls-5" d="M24.24,109.83c-2.23-.07-4.45.28-6.7.25A18.38,18.38,0,0,1,10.87,109,8.74,8.74,0,0,1,6,104.33a21.86,21.86,0,0,1-1.57-6.65,79.3,79.3,0,0,1-.12-13.52A105,105,0,0,1,6,70.75c.23-1.11.48-2.22.79-3.33.16-.56.33-1.12.55-1.69.1-.28.25-.58.38-.87A6.4,6.4,0,0,1,8.27,64,8.8,8.8,0,0,1,15.05,61a9.11,9.11,0,0,1,3.69.71,6.05,6.05,0,0,1,3,2.62,5.1,5.1,0,0,1,.51,2c.05.61.05,1.2,0,1.78,0,1.15-.12,2.28-.23,3.4A115.1,115.1,0,0,0,21,84.8a18,18,0,0,0,1.05,6.42,6.86,6.86,0,0,0,1.84,2.63,6.24,6.24,0,0,0,3,1.36,6.15,6.15,0,0,1-3.18-1.08,7.3,7.3,0,0,1-2.2-2.64,18.41,18.41,0,0,1-1.63-6.63,97.35,97.35,0,0,1,.35-13.47c.07-1.11.14-2.21.13-3.28A6.72,6.72,0,0,0,20,65.3c-.83-1.49-2.93-2.21-4.88-2.18a6.75,6.75,0,0,0-5.13,2.22A8.41,8.41,0,0,0,8.82,68c-.3,1-.56,2.1-.78,3.17A125.43,125.43,0,0,0,6.13,84.31a93.42,93.42,0,0,0-.46,13.26A32.5,32.5,0,0,0,6,100.85,15.3,15.3,0,0,0,6.72,104a7.9,7.9,0,0,0,4.38,4.46,18,18,0,0,0,6.45,1.28c1.11,0,2.22,0,3.34,0A31.21,31.21,0,0,1,24.24,109.83Z"/><path class="cls-5" d="M22.26,91.66a15.26,15.26,0,0,0,4.16,0A6.48,6.48,0,0,0,30.05,90a7.59,7.59,0,0,0,2-3.44,21.66,21.66,0,0,0,.75-4c.3-2.75.33-5.55.74-8.39a14.33,14.33,0,0,1,1.19-4.24A7.28,7.28,0,0,1,36,68a12.37,12.37,0,0,1,1.8-1.4A9.9,9.9,0,0,1,42.1,65a5.52,5.52,0,0,1,4.55,1.61C49,68.93,49.38,72.25,49.4,75a166.83,166.83,0,0,1-.58,16.89,133.79,133.79,0,0,1-2.47,16.74A69.82,69.82,0,0,1,44,116.83a32.45,32.45,0,0,1-3.85,7.7,16.28,16.28,0,0,1-3,3.23,10.53,10.53,0,0,1-4,2.07,13.9,13.9,0,0,1-4.36.62,4.56,4.56,0,0,1-2.29-.76,3.2,3.2,0,0,1-1.21-2.13,11.18,11.18,0,0,1,.43-4.35c.35-1.38.78-2.72,1.21-4s.85-2.66,1.17-4a12,12,0,0,0,.34-2.05,4,4,0,0,0-.3-2,4,4,0,0,1,.46,2,12.35,12.35,0,0,1-.18,2.11c-.24,1.39-.59,2.76-.94,4.11s-.7,2.71-1,4.06a10.54,10.54,0,0,0-.18,4,2.2,2.2,0,0,0,.85,1.41,3.43,3.43,0,0,0,1.67.45,13.17,13.17,0,0,0,3.89-.74,11.52,11.52,0,0,0,6-4.9c2.9-4.56,4.45-10,5.61-15.35a133.92,133.92,0,0,0,2.32-16.48c.49-5.54.74-11.13.7-16.66A16.63,16.63,0,0,0,47,71.14a7.32,7.32,0,0,0-1.67-3.24,3.67,3.67,0,0,0-3.06-1.15A8.31,8.31,0,0,0,38.74,68a12.56,12.56,0,0,0-1.56,1.12,6,6,0,0,0-1.07,1.49,13.92,13.92,0,0,0-1.19,3.78c-.51,2.68-.65,5.49-1.09,8.29a22.36,22.36,0,0,1-1,4.16,8.34,8.34,0,0,1-2.38,3.61,7,7,0,0,1-4,1.56A15.55,15.55,0,0,1,22.26,91.66Z"/><path class="cls-5" d="M55.39,77.83C54.27,83.75,53,89.66,52.76,95.65a34.52,34.52,0,0,0,.66,8.86,20,20,0,0,0,1.42,4.16,14.71,14.71,0,0,0,2.46,3.58,13.3,13.3,0,0,0,3.41,2.68,16.67,16.67,0,0,0,4.06,1.63,15.42,15.42,0,0,0,8.65,0,15.72,15.72,0,0,0,4-1.89,21,21,0,0,0,3.36-2.9,32.7,32.7,0,0,0,5.15-7.35,30.83,30.83,0,0,1-4.75,7.71,22,22,0,0,1-3.37,3.1,17,17,0,0,1-4.1,2.13,15.63,15.63,0,0,1-9.16.2,17.37,17.37,0,0,1-4.32-1.68A14.15,14.15,0,0,1,56.51,113a15.68,15.68,0,0,1-2.6-3.86,20.82,20.82,0,0,1-1.45-4.4,32.15,32.15,0,0,1-.53-9.12,67.67,67.67,0,0,1,1.29-9C53.86,83.66,54.61,80.74,55.39,77.83Z"/><path class="cls-5" d="M86.71,98.93a87.9,87.9,0,0,0,1.65-16.49,38.46,38.46,0,0,0-1-8.06,17.46,17.46,0,0,0-3.34-7,11,11,0,0,0-6.45-3.76,19.4,19.4,0,0,0-7.86.33,23.92,23.92,0,0,0-7.58,2.7A13.75,13.75,0,0,0,59,69.13a14.93,14.93,0,0,0-2.29,3.42,12.34,12.34,0,0,1,4.75-6.94,22.5,22.5,0,0,1,7.82-3.51A19.94,19.94,0,0,1,78,61.52,12.59,12.59,0,0,1,85.7,66a18.5,18.5,0,0,1,3.64,8A34.57,34.57,0,0,1,90,82.46,60,60,0,0,1,86.71,98.93Z"/><path class="cls-5" d="M64.15,76.51A9.93,9.93,0,0,1,68,75.08a5,5,0,0,1,4.09,1.13A7.21,7.21,0,0,1,74,80a20.4,20.4,0,0,1,.37,4.17c0,2.69-.1,5.39-.36,8.11a29.54,29.54,0,0,1-.7,4.1,8.48,8.48,0,0,1-2.07,4.06,4.66,4.66,0,0,1-2.3,1.18,6.44,6.44,0,0,1-1.23.07l-.59,0a4.16,4.16,0,0,1-.79-.2,3.9,3.9,0,0,1-1.83-2,9.13,9.13,0,0,1-.77-2.09,27.31,27.31,0,0,1-.56-8.28,28,28,0,0,1,1.72-8A12.25,12.25,0,0,1,67,77.58a4.77,4.77,0,0,1,3.61-1.76A4.64,4.64,0,0,0,67.49,78a12.33,12.33,0,0,0-1.57,3.53,30.73,30.73,0,0,0-1,7.76,28.22,28.22,0,0,0,.85,7.67,7.75,7.75,0,0,0,.64,1.66,2,2,0,0,0,.82,1c.07,0,0,0,.18,0l.41,0a4.84,4.84,0,0,0,.78-.06,2.39,2.39,0,0,0,1.21-.65,6.57,6.57,0,0,0,1.52-3,32.73,32.73,0,0,0,.71-3.8c.36-2.6.51-5.27.71-7.93a21.44,21.44,0,0,0-.08-3.85A6,6,0,0,0,71.31,77,4.18,4.18,0,0,0,68,75.68,10.65,10.65,0,0,0,64.15,76.51Z"/><path class="cls-5" d="M99.85,94.41a13,13,0,0,1-2.27-.91,4.89,4.89,0,0,1-1.82-1.74,9.63,9.63,0,0,1-1-4.89,68.82,68.82,0,0,1,1-9.75c.5-3.22,1.16-6.41,1.91-9.59.38-1.59.81-3.16,1.34-4.75a11,11,0,0,1,.44-1.2,4.67,4.67,0,0,1,.27-.64,6,6,0,0,1,.42-.69,7,7,0,0,1,2.23-1.79,12,12,0,0,1,5.16-1.18,12.67,12.67,0,0,1,5.17.94,7.22,7.22,0,0,1,4,3.75,8.69,8.69,0,0,1,.38,1.39,8.38,8.38,0,0,1,.06,1.43,11,11,0,0,1-.8,2.55,91.42,91.42,0,0,0-3.45,9,25.47,25.47,0,0,0-1,4.67,15.11,15.11,0,0,0,.32,4.78,13.27,13.27,0,0,1-.89-4.8,26.13,26.13,0,0,1,.5-4.91,68.89,68.89,0,0,1,2.9-9.34,10.9,10.9,0,0,0,.57-2.09c0-.29-.06-.66-.08-1a7.84,7.84,0,0,0-.29-.94,5.25,5.25,0,0,0-3-2.6,11,11,0,0,0-8.54.26,5,5,0,0,0-1.55,1.19,4,4,0,0,0-.41.83,9.54,9.54,0,0,0-.4,1.07c-.52,1.47-.94,3-1.36,4.57-.84,3.1-1.55,6.24-2.23,9.38a86.15,86.15,0,0,0-1.58,9.49,8.84,8.84,0,0,0,.45,4.58C96.9,92.9,98.41,93.72,99.85,94.41Z"/><path class="cls-5" d="M108,85.79c2.66.83,5.79.74,7.93-1s2.79-4.64,3.41-7.32,1-5.53,1.6-8.33A15.51,15.51,0,0,1,122.4,65a4.61,4.61,0,0,1,1.79-1.8,3.58,3.58,0,0,1,1.3-.36c.37,0,.73-.07,1.1-.09a13.55,13.55,0,0,1,4.49.41,8.59,8.59,0,0,1,2.17,1A7.51,7.51,0,0,1,135,65.73,9.78,9.78,0,0,1,136.84,70a4.24,4.24,0,0,1,.1.62,5,5,0,0,1,0,.66c0,.41-.07.79-.13,1.17a20.62,20.62,0,0,1-.47,2.16,70.75,70.75,0,0,1-2.79,8.13c-1.06,2.65-2.21,5.25-3.41,7.83a155.07,155.07,0,0,1-8.1,15c-1.51,2.42-3.1,4.79-4.84,7.07a35.46,35.46,0,0,1-5.94,6.32,9.76,9.76,0,0,1-4.12,2,4.29,4.29,0,0,1-2.51-.31,4.52,4.52,0,0,1-1.88-1.66,6.5,6.5,0,0,1-.5-4.6,23.52,23.52,0,0,1,1.27-4.15c1-2.65,2.3-5.19,3.07-7.86a6.37,6.37,0,0,0,.12-4,3,3,0,0,0-1.4-1.44l-1.81-1.09,1.9,1a3.15,3.15,0,0,1,1.6,1.44,6.65,6.65,0,0,1,.15,4.29c-.64,2.81-1.77,5.43-2.63,8.09a23.51,23.51,0,0,0-1.05,4,5.28,5.28,0,0,0,.48,3.63,3.08,3.08,0,0,0,1.29,1.06,2.73,2.73,0,0,0,1.63.14,8.16,8.16,0,0,0,3.33-1.83,36.64,36.64,0,0,0,5.48-6.14c1.65-2.25,3.17-4.6,4.61-7a159.88,159.88,0,0,0,7.89-14.86,108.62,108.62,0,0,0,6.19-15.56c.18-.66.35-1.33.46-2a8.06,8.06,0,0,0,.12-.94,2.67,2.67,0,0,0,0-.4,3.2,3.2,0,0,0-.06-.42,8,8,0,0,0-1.39-3.48c-1.43-2-4.19-2.59-6.86-2.49-.34,0-.68,0-1,0a1.91,1.91,0,0,0-.73.18,2.94,2.94,0,0,0-1.18,1.15,14.92,14.92,0,0,0-1.44,3.73c-.72,2.68-1.2,5.48-1.94,8.24a28.49,28.49,0,0,1-1.43,4.07,8.76,8.76,0,0,1-2.67,3.45,7.3,7.3,0,0,1-4.09,1.33A10.83,10.83,0,0,1,108,85.79Z"/><path class="cls-5" d="M133.37,168.68a4.17,4.17,0,0,1,2.07.16,3,3,0,0,1,1.48,1.51,11.47,11.47,0,0,1,.91,4.11c.08,1.4,0,2.81,0,4.19l-.07,4.15c0,2.78-.09,5.56-.23,8.34-.07,1.39-.17,2.79-.36,4.19a15,15,0,0,1-.43,2.12,5.4,5.4,0,0,1-.45,1.08,2.5,2.5,0,0,1-.46.54c-.18.13-.33.23-.5.33a5.46,5.46,0,0,1-2.18.69,4.41,4.41,0,0,1-2.32-.35,1.73,1.73,0,0,1-1-1,5.27,5.27,0,0,1-.12-1.21c0-.71,0-1.41,0-2.1.06-2.79.15-5.57.33-8.34.32-5.54.68-11.08,1.24-16.61l-.41,16.65c0,2.77-.16,5.54-.17,8.31,0,.68,0,1.38,0,2,0,.34,0,.71,0,.86s.22.32.47.44a4.07,4.07,0,0,0,3.5-.35c.13-.07.27-.17.38-.24a1.14,1.14,0,0,0,.21-.25,4,4,0,0,0,.35-.83,15.11,15.11,0,0,0,.42-2c.2-1.34.31-2.72.4-4.1.18-2.75.23-5.53.38-8.3l.22-4.16c.08-1.4.17-2.76.15-4.14a10.82,10.82,0,0,0-.64-4,2.82,2.82,0,0,0-1.28-1.48A4.16,4.16,0,0,0,133.37,168.68Z"/><path class="cls-5" d="M147.82,169.21a13.74,13.74,0,0,1,4.19-.59,10.05,10.05,0,0,1,1.09,0,3.44,3.44,0,0,1,.58.11l.17.06s0,0,.15.1a.5.5,0,0,1,.1.13l0,.06a1.49,1.49,0,0,1,.1.35,20.91,20.91,0,0,1,.2,2.16c.1,2.82.08,5.63,0,8.44s-.21,5.61-.38,8.42c-.08,1.4-.21,2.8-.33,4.21s-.26,2.78-.55,4.29a3.18,3.18,0,0,1-.2.69,1.22,1.22,0,0,1-.08.17l0,.09a1.45,1.45,0,0,1-.18.21,1.12,1.12,0,0,1-.23.18l0,0-.08,0-.29.15c-.37.17-.72.3-1.07.43a19.75,19.75,0,0,1-2.14.64,8.09,8.09,0,0,1-1.22.18,2.05,2.05,0,0,1-1-.16l-.19-.09a1.56,1.56,0,0,1-.28-.29,1.29,1.29,0,0,1-.21-.4.53.53,0,0,1,0-.13c0-.12,0-.27-.06-.37a21.17,21.17,0,0,1-.11-2.2c0-2.83,0-5.63.14-8.44.2-5.6.54-11.2,1.12-16.79.32,5.61.46,11.21.57,16.81.08,2.79.09,5.6.22,8.36,0,.68.06,1.4.13,2a1,1,0,0,0,0,.15s0,0,0,0a.74.74,0,0,0-.14-.28,1.34,1.34,0,0,0-.23-.18l-.07,0c-.22-.07-.05,0,0,0a6.67,6.67,0,0,0,.85-.15,16.11,16.11,0,0,0,1.87-.58c.31-.12.62-.24.88-.37a1,1,0,0,0,.18-.09l0,0h0a.89.89,0,0,0-.18.13,1.13,1.13,0,0,0-.13.16l0,0,0,.06s.05-.18.08-.32c.48-2.58.68-5.45,1-8.2l.73-8.35c.22-2.78.48-5.57.62-8.35a20,20,0,0,0,0-2,1.26,1.26,0,0,1,0-.16h0s0,.06.06.08l0,0-.07,0a3.35,3.35,0,0,0-.44-.13c-.32-.06-.66-.12-1-.16a20.36,20.36,0,0,0-2.08-.14A8.56,8.56,0,0,0,147.82,169.21Z"/><path class="cls-5" d="M162.46,169.53l0,6.53-.07,6.51c0,4.34-.19,8.71,0,13a8.56,8.56,0,0,0,.18,1.48s0,0,0,0h0a.27.27,0,0,0-.07-.08.47.47,0,0,0-.25-.09h0l.41-.06.8-.11a15,15,0,0,0,1.54-.31c.47-.12,1-.33.89-.48.25-2,.26-4.28.39-6.42l.28-6.52.34-6.51c.19,4.35.24,8.7.22,13,0,1.08,0,2.17-.06,3.26s-.05,2.15-.2,3.33c-.07.21-.08.46-.27.62a1.77,1.77,0,0,1-.47.33,4.44,4.44,0,0,1-.85.32,16.76,16.76,0,0,1-1.65.35l-.81.13-.4.06-.1,0s0,0-.17,0a.54.54,0,0,1-.33-.13,1.06,1.06,0,0,1-.15-.15l-.05-.1a.68.68,0,0,1-.07-.17,8.53,8.53,0,0,1-.26-1.75c-.1-2.21-.06-4.38,0-6.56s.1-4.35.23-6.52C161.75,178.21,162,173.87,162.46,169.53Z"/><path class="cls-5" d="M167.1,128.84a2.11,2.11,0,0,1-1.82,2.09,2.08,2.08,0,0,1-1.62-.47,2.14,2.14,0,0,1,0-3.24,2.08,2.08,0,0,1,1.62-.47A2.11,2.11,0,0,1,167.1,128.84Zm0,0a1.62,1.62,0,0,0-.59-1.23,1.49,1.49,0,0,0-1.23-.32,1.58,1.58,0,0,0-1.28,1.55,1.56,1.56,0,0,0,1.28,1.55,1.49,1.49,0,0,0,1.23-.32A1.62,1.62,0,0,0,167.1,128.84Z"/><path class="cls-5" d="M181.66,123.49a3.59,3.59,0,0,1-6,2.67,3.6,3.6,0,0,1,0-5.35,3.58,3.58,0,0,1,6,2.68Zm0,0a3.05,3.05,0,1,0-3.32,3.05,3.14,3.14,0,0,0,2.3-.76A3.1,3.1,0,0,0,181.66,123.49Z"/><path class="cls-5" d="M181.66,111.81c.91-1.27,1.89-2.47,2.88-3.68s2.05-2.35,3.12-3.48a41.78,41.78,0,0,1,3.39-3.26,22.79,22.79,0,0,1,3.85-2.79.53.53,0,0,1,.72.21.45.45,0,0,1,.07.25h0c0,3.24,0,6.48-.06,9.73l-.62-.45a43.25,43.25,0,0,0,5.85-2.34,23.88,23.88,0,0,0,2.74-1.56,8.22,8.22,0,0,0,2.27-2.17,7.48,7.48,0,0,1-2.06,2.45,17.87,17.87,0,0,1-2.66,1.82,38.32,38.32,0,0,1-5.85,2.7.47.47,0,0,1-.59-.28.4.4,0,0,1,0-.15v0q-.08-4.87-.06-9.73l.79.47a25.23,25.23,0,0,0-3.73,2.6c-1.19,1-2.34,2-3.47,3C186,107.32,183.8,109.55,181.66,111.81Z"/><path class="cls-5" d="M181.93,111.49c1.66-1.07,3.36-2.07,5.06-3.08.85-.5,1.71-1,2.59-1.45l.67-.34a3.17,3.17,0,0,1,.37-.16l.16,0a.44.44,0,0,1,.28,0l.12.11a.55.55,0,0,1,.11.18l.05.13a8.09,8.09,0,0,1,.17,1.57,49.34,49.34,0,0,1-.26,6,32.5,32.5,0,0,1-1,5.93l-.8-.64a49.49,49.49,0,0,0,4.9-3.54,55.71,55.71,0,0,0,4.52-4,39.32,39.32,0,0,0,3.95-4.59,30.65,30.65,0,0,0,3.09-5.25,26.38,26.38,0,0,1-2.64,5.55,40.59,40.59,0,0,1-3.79,4.88A48.5,48.5,0,0,1,195,117a50.58,50.58,0,0,1-5,3.67.53.53,0,0,1-.73-.17.52.52,0,0,1-.06-.45v0a32.89,32.89,0,0,0,1.07-5.69c.23-1.94.39-3.9.44-5.84a8.54,8.54,0,0,0-.07-1.38v0s0,0,0,0a.09.09,0,0,0,.05,0,.24.24,0,0,0,.2,0h0l-.31.12-.66.29c-.89.42-1.76.87-2.65,1.3Z"/><path class="cls-5" d="M228.44,63.36a81,81,0,0,0-17.8,10.88,61.49,61.49,0,0,0-7.43,7.27,43.61,43.61,0,0,0-5.66,8.64l-.73-.67q4-2.33,8.05-4.54c1.35-.73,2.71-1.46,4.08-2.16a30.82,30.82,0,0,1,4.3-2,.46.46,0,0,1,.58.29.54.54,0,0,1,0,.28v0a54.48,54.48,0,0,0-1.53,8.09,81.5,81.5,0,0,0-.6,8.26c0,2.76,0,5.53.2,8.3s.5,5.51.86,8.27c-.24-1.37-.52-2.73-.72-4.11s-.42-2.75-.53-4.13a79.92,79.92,0,0,1-.47-8.34,83.33,83.33,0,0,1,.39-8.35,51.22,51.22,0,0,1,1.47-8.27l.58.61a33,33,0,0,0-4.07,1.91c-1.35.71-2.7,1.45-4,2.19l-8,4.52h0a.52.52,0,0,1-.71-.2.54.54,0,0,1,0-.48,44.44,44.44,0,0,1,5.88-8.82,53.12,53.12,0,0,1,7.67-7.25,72.18,72.18,0,0,1,8.78-5.82A68.46,68.46,0,0,1,228.44,63.36Z"/><path class="cls-5" d="M227.76,63.63a38.83,38.83,0,0,0-3.87,7,58.43,58.43,0,0,0-2.68,7.48,66.38,66.38,0,0,0-1.69,7.77c-.24,1.3-.33,2.62-.5,3.94s-.19,2.64-.29,4l-.62-.43c5.46-2.42,10.94-4.75,16.45-7s11-4.53,16.78-6.32a.5.5,0,0,1,.64.33.52.52,0,0,1-.22.59h0c-3.47,2.12-6.87,4.39-10.2,6.73s-6.61,4.77-9.78,7.33a99.07,99.07,0,0,0-9.08,8.17,40.59,40.59,0,0,0-7.4,9.68,39.26,39.26,0,0,1,7.07-10,91.22,91.22,0,0,1,8.94-8.42c3.14-2.63,6.36-5.16,9.71-7.53s6.72-4.67,10.21-6.83l.41.92c-2.81.89-5.6,1.94-8.37,3s-5.55,2.16-8.31,3.28c-5.52,2.24-11,4.56-16.48,6.9h0a.44.44,0,0,1-.57-.23.39.39,0,0,1,0-.21c.12-1.33.21-2.67.37-4s.32-2.66.59-4a65.66,65.66,0,0,1,1.86-7.81,56.25,56.25,0,0,1,2.94-7.45A35.48,35.48,0,0,1,227.76,63.63Z"/><path class="cls-5" d="M27.72,117.6A12.48,12.48,0,0,0,31,118.85a24.27,24.27,0,0,0,3.47.62c1.17.15,2.35.11,3.52.26.58.07,1.17.12,1.76.22a14.18,14.18,0,0,1,1.78.32,0,0,0,0,1,0,.06,0,0,0,0,1,0,0,14.2,14.2,0,0,1-3.6.44,18.13,18.13,0,0,1-3.59-.48,23.57,23.57,0,0,1-3.5-1,12.68,12.68,0,0,1-3.2-1.67.08.08,0,0,1,0-.08.06.06,0,0,1,.07,0Z"/><path class="cls-5" d="M41,121.41a54.77,54.77,0,0,0,11.57,3.72,24.14,24.14,0,0,0,6,.4,27.57,27.57,0,0,0,5.9-1.19,13.11,13.11,0,0,1,6.23-.74,7,7,0,0,1,3,1.36,9,9,0,0,1,2.1,2.46,17.13,17.13,0,0,1,1.88,6,26.38,26.38,0,0,1,.11,6.15.06.06,0,0,1-.06.05.06.06,0,0,1-.05-.06,36.44,36.44,0,0,0-.75-6A17.2,17.2,0,0,0,74.82,128a6.87,6.87,0,0,0-4.36-3.33,12.33,12.33,0,0,0-5.79.52,27.56,27.56,0,0,1-6.08,1.06,24.32,24.32,0,0,1-6.14-.57A54.27,54.27,0,0,1,41,121.51a.05.05,0,0,1,0-.07A.06.06,0,0,1,41,121.41Z"/><path class="cls-5" d="M68.05,100.71A22,22,0,0,0,66.78,105a19.58,19.58,0,0,0-.39,4.37,18.84,18.84,0,0,0,.75,4.24,20.86,20.86,0,0,0,1.7,4h0a.05.05,0,0,1,0,.08.06.06,0,0,1-.06,0,8.93,8.93,0,0,1-1.55-1.7,10.23,10.23,0,0,1-.62-1l-.47-1.07a11.72,11.72,0,0,1-.6-4.58A20.39,20.39,0,0,1,68,100.66a0,0,0,0,1,.07,0A.06.06,0,0,1,68.05,100.71Z"/><path class="cls-5" d="M70,117.55a5.88,5.88,0,0,1,1.44.8,13.82,13.82,0,0,1,1.27,1A20.82,20.82,0,0,1,75,121.69a19.2,19.2,0,0,1,3.19,5.69,16.12,16.12,0,0,1,1.06,6.48,17.9,17.9,0,0,1-1.51,6.35.06.06,0,0,1-.07,0,.07.07,0,0,1,0-.06h0c0-.55.13-1.08.2-1.61a12,12,0,0,0,.2-1.58,25.6,25.6,0,0,0,.12-3.15,21.19,21.19,0,0,0-.79-6.18,18.6,18.6,0,0,0-2.8-5.64,22.61,22.61,0,0,0-2.07-2.42A10,10,0,0,0,70,117.66l0,0a0,0,0,0,1,0-.06A.05.05,0,0,1,70,117.55Z"/><path class="cls-5" d="M104.13,110.14a16.3,16.3,0,0,1,3.13-.33,23.63,23.63,0,0,1,3.14.28,14.11,14.11,0,0,1,3.07.71,10.1,10.1,0,0,1,2.76,1.57.06.06,0,0,1,0,.08l0,0a28.67,28.67,0,0,1-3-.64c-1-.24-1.93-.63-2.92-.9a19,19,0,0,0-6.07-.68.06.06,0,0,1-.06,0A.07.07,0,0,1,104.13,110.14Z"/><path class="cls-5" d="M103.61,111.9a25.36,25.36,0,0,1-6.16,7.59,60.69,60.69,0,0,1-8.32,5.19A22.7,22.7,0,0,0,82,130.92a35,35,0,0,0-4.26,8.62.05.05,0,0,1-.07,0,.05.05,0,0,1,0-.06,24.45,24.45,0,0,1,3.49-9.22,20.09,20.09,0,0,1,7.58-6.36,59.63,59.63,0,0,0,8.41-4.87,24.93,24.93,0,0,0,6.41-7.22.06.06,0,0,1,.07,0A.06.06,0,0,1,103.61,111.9Z"/><path class="cls-5" d="M33.16,119.63a6.06,6.06,0,0,1-2-2.08,2,2,0,0,1-.19-.8,1.3,1.3,0,0,1,.33-.84,2.1,2.1,0,0,1,.69-.51,1.22,1.22,0,0,1,1,0,2.23,2.23,0,0,1,1,1.38,4.38,4.38,0,0,1,.16,1.57,3.52,3.52,0,0,1-.48,1.53,8.12,8.12,0,0,0-.59,1.18,5.76,5.76,0,0,0-.39,1.22,1.7,1.7,0,0,0,0,.91s0,0,.18,0a.79.79,0,0,0,.39-.16,1.65,1.65,0,0,0,.43-.94,3.42,3.42,0,0,0-.09-1.23,2.83,2.83,0,0,0-.23-.57,2.13,2.13,0,0,0-.16-.25,2.64,2.64,0,0,1-.26-.32.55.55,0,0,1,.06-.58,1.36,1.36,0,0,1,.3-.29,4.13,4.13,0,0,1,.63-.37,8.17,8.17,0,0,1,1.32-.51c-.4.24-.8.49-1.17.75a3.67,3.67,0,0,0-.51.44c-.16.14-.22.36-.17.3s.13.11.22.19a2.43,2.43,0,0,1,.26.3,3,3,0,0,1,.38.68,3.77,3.77,0,0,1,.26,1.53,2.3,2.3,0,0,1-.64,1.57,1.65,1.65,0,0,1-.85.43,1.69,1.69,0,0,1-.52,0,1,1,0,0,1-.6-.32,1.56,1.56,0,0,1-.34-1,3.6,3.6,0,0,1,.06-.82,6.39,6.39,0,0,1,.43-1.45,10,10,0,0,1,.68-1.3,2.83,2.83,0,0,0,.38-1.1,3.44,3.44,0,0,0-.06-1.2,1.58,1.58,0,0,0-.49-.9.41.41,0,0,0-.33,0,1.47,1.47,0,0,0-.46.27.82.82,0,0,0-.17,1A6.93,6.93,0,0,0,33.16,119.63Z"/><path class="cls-5" d="M66,108.13c-.92-.42-1.79-.87-2.67-1.21a4.32,4.32,0,0,0-1.26-.32c-.41,0-.48.09-.55.34-.24.32.76.87,1.63,1.1s1.87.48,2.85.74a9.33,9.33,0,0,1-3,.09,4.94,4.94,0,0,1-1.55-.45,1.65,1.65,0,0,1-.39-.24,1.47,1.47,0,0,1-.36-.38,1.35,1.35,0,0,1-.21-1.12,1.56,1.56,0,0,1,.67-.92,2.63,2.63,0,0,1,.54-.18,2.67,2.67,0,0,1,.49,0,4,4,0,0,1,1.53.59A8.75,8.75,0,0,1,66,108.13Z"/><path class="cls-5" d="M66,107.73a4.75,4.75,0,0,1,1.55-1.79,2.49,2.49,0,0,1,1.3-.44A1.58,1.58,0,0,1,70,106a1.07,1.07,0,0,1,.27.44,1,1,0,0,1,0,.61,1.59,1.59,0,0,1-.25.41,2.47,2.47,0,0,1-.58.44,4.67,4.67,0,0,1-1.14.43,5.62,5.62,0,0,1-2.34.15c.72-.3,1.39-.62,2-.94a7.77,7.77,0,0,0,.91-.52c.28-.15.42-.45.34-.27s0,0,0,0,0-.06-.09-.08a.46.46,0,0,0-.29-.1,1.69,1.69,0,0,0-.85.16A14.89,14.89,0,0,0,66,107.73Z"/><path class="cls-5" d="M63.76,110.61a7.86,7.86,0,0,1,1.5-2.5.51.51,0,0,1,.66-.11l0,0a9.76,9.76,0,0,1,1.33,1,6.1,6.1,0,0,1,1.13,1.28,6.58,6.58,0,0,1-1.62-.55,9.68,9.68,0,0,1-1.43-.83l.7-.09A8,8,0,0,1,63.76,110.61Z"/><path class="cls-5" d="M104.49,109.28c-.27-.73-.49-1.44-.77-2.08a2.62,2.62,0,0,0-.49-.77.68.68,0,0,0-.22-.13s-.07,0-.1,0,0,0,0,0,0-.11,0,0a1.4,1.4,0,0,0,.07.41,8.83,8.83,0,0,0,.33,1c.27.67.56,1.36.8,2.1a7.22,7.22,0,0,1-1.55-1.71,5.69,5.69,0,0,1-.56-1.07,2.53,2.53,0,0,1-.15-.68,1.07,1.07,0,0,1,.41-1,1.51,1.51,0,0,1,.52-.17,2.32,2.32,0,0,1,.46,0,1.53,1.53,0,0,1,.71.47,2.78,2.78,0,0,1,.54,1.2A5.43,5.43,0,0,1,104.49,109.28Z"/><path class="cls-5" d="M104,110.7a6.1,6.1,0,0,1-1.86,1.71,2.84,2.84,0,0,1-1.36.42,1.43,1.43,0,0,1-.87-.28,1.39,1.39,0,0,1-.53-.83,1.2,1.2,0,0,1,.07-.59,1.32,1.32,0,0,1,.3-.41,2.21,2.21,0,0,1,.66-.42,5,5,0,0,1,1.27-.32,7.76,7.76,0,0,1,2.5.06c-.79.29-1.56.51-2.31.76a8.18,8.18,0,0,0-1,.43,1.51,1.51,0,0,0-.35.24c-.07,0,0,.06,0,.07s0,0,0,0a.78.78,0,0,0,.11.18.49.49,0,0,0,.26.09,2.73,2.73,0,0,0,1-.17C102.46,111.39,103.19,111,104,110.7Z"/><path class="cls-5" d="M117.19,144.28a7.54,7.54,0,0,1,3.41,1.1,8.94,8.94,0,0,1,2.71,2.45,9.7,9.7,0,0,1,1.57,3.29,10.71,10.71,0,0,1,.32,1.78,15.1,15.1,0,0,1,0,1.78c-.21-.56-.33-1.13-.51-1.68s-.35-1.1-.6-1.61c-.12-.26-.23-.51-.34-.77l-.4-.74a9.37,9.37,0,0,0-.9-1.41,12,12,0,0,0-2.32-2.4A13.91,13.91,0,0,0,117.19,144.28Z"/><path class="cls-6" d="M74.39,68.87a4.31,4.31,0,0,1,4.2,1.67,10.65,10.65,0,0,1,1.29,2c.18.35.35.7.51,1.07l.35,1.09a26.79,26.79,0,0,1,.94,8.94c0,.74-.05,1.49-.13,2.22L81.28,88a36.94,36.94,0,0,1-.81,4.32,43.45,43.45,0,0,1-2.77,8.32c-.15-3,.14-5.83.24-8.69,0-.71.1-1.42.16-2.13l.11-2.12c.09-1.42.21-2.82.22-4.22a48.13,48.13,0,0,0-.17-8.25l-.13-1-.23-1a8.73,8.73,0,0,0-.62-1.87A4.2,4.2,0,0,0,74.39,68.87Z"/><path class="cls-6" d="M14.32,66.8A54.45,54.45,0,0,1,14,72.32c-.17,1.79-.39,3.55-.65,5.31s-.57,3.5-.91,5.27A37.49,37.49,0,0,1,11,88.26a19.08,19.08,0,0,1-1.11-5.53,26.67,26.67,0,0,1,.25-5.58,26.23,26.23,0,0,1,1.39-5.41A16.75,16.75,0,0,1,14.32,66.8Z"/><path class="cls-6" d="M146,97.46a8.73,8.73,0,0,1,3.44-2.22,10,10,0,0,1,4.17-.59,8.3,8.3,0,0,1,4,1.34,7.54,7.54,0,0,1,2.75,3.08,26.79,26.79,0,0,0-3.51-1.55,12.47,12.47,0,0,0-3.45-.71A29.64,29.64,0,0,0,146,97.46Z"/><path class="cls-6" d="M127.8,101.42c.09,1,.12,1.94.16,2.85l.07,2.64.05,2.65a25.65,25.65,0,0,1-.08,2.86,7.9,7.9,0,0,1-2.13-5.46,8.86,8.86,0,0,1,.41-2.94A6.25,6.25,0,0,1,127.8,101.42Z"/><path class="cls-6" d="M125.69,77.83a29.14,29.14,0,0,1-.93,7,42.43,42.43,0,0,1-2.25,6.63,37.66,37.66,0,0,1-3.4,6.15,22.66,22.66,0,0,1-4.84,5.18c.84-2.25,1.73-4.32,2.61-6.41s1.74-4.16,2.66-6.22S121.37,86,122.36,84A65.57,65.57,0,0,1,125.69,77.83Z"/><path class="cls-6" d="M128.6,160a28.12,28.12,0,0,1,4.83-.85c1.62-.15,3.23-.24,4.84-.24s3.22.08,4.83.24a27.14,27.14,0,0,1,4.84.85,28,28,0,0,1-4.84.84q-2.41.24-4.83.24c-1.61,0-3.22-.08-4.84-.24A29.09,29.09,0,0,1,128.6,160Z"/></g></svg>